<?xml version="1.0" encoding="UTF-8"?>
<svg width="64" height="51" version="1.1" viewBox="0 0 64 51" xmlns="http://www.w3.org/2000/svg">
 <path d="m17 1v29c0 1.9012 2 2 2 2h2.8406s2.1594 0.06796 2.1594-2v-7c0-1.1361 0.49754-1.5025 1-1l11 11c0.43463 0.43463-0.03221 1-0.5 1h-34.5c-0.66819 0-0.65062 0.84938 0 1.5l14.5 14.5c0.63373 0.63373 1.5 0.80327 1.5 0l0.5-8c0-1.0345 1-1 1-1l22.429-0.15992c2.068 0 3.3204 0.40926 4.0711 1.1599l4 4c0.75065 0.75065 1.2329 1 2 1h11c1.5033 0 1.8711-1.1289 1-2l-44-44c-0.76715-0.76715-2-0.50031-2 0z" fill="#003c6a"/>
</svg>
